Coordinates
version=1
nRows=13
nColumns=30
inDegrees=yes

Units are S.I. units (second, meters, Newtons, ...)
Angles are in degrees.

endheader
time	floatyaw	floatroll	floatpitch	floatx	floaty	floatz	pro_sup_l	deviation_l	flexion_l	cmc_flexion_l	cmc_abduction_l	mp_flexion_l	ip_flexion_l	2mcp_flexion_l	2mcp_abduction_l	2pm_flexion_l	2md_flexion_l	3mcp_flexion_l	3mcp_abduction_l	3pm_flexion_l	3md_flexion_l	4mcp_flexion_l	4mcp_abduction_l	4pm_flexion_l	4md_flexion_l	5mcp_flexion_l	5mcp_abduction_l	5pm_flexion_l	5md_flexion_l
-0.495000	-160.147433	-5.066637	-73.570646	0.073024	-0.175910	-0.026267	102.842597	5.909470	-1.563820	11.946581	11.674025	-26.610708	-42.358722	31.568185	7.612934	44.516649	32.230935	26.240412	4.434984	47.578324	32.094631	16.048505	-4.513763	54.956622	38.395385	4.753065	-8.766794	63.316620	44.740159
-0.485000	-160.147433	-5.066637	-73.570646	0.072723	-0.175632	-0.026405	102.911150	5.985053	-1.666100	11.957480	11.767339	-26.603123	-42.330684	31.605123	7.615793	44.526750	32.238002	26.255697	4.438960	47.597079	32.106366	16.079107	-4.512361	54.961526	38.407034	4.778605	-8.763770	63.344480	44.745035
-0.475000	-160.147433	-5.066637	-73.570646	0.072432	-0.175383	-0.026532	102.972436	6.049624	-1.771658	11.955554	11.865181	-26.598436	-42.317788	31.631467	7.614285	44.538492	32.252955	26.259259	4.441266	47.610617	32.116699	16.091402	-4.511547	54.962853	38.420803	4.788933	-8.751728	63.369716	44.758366
-0.465000	-160.147433	-5.066637	-73.570646	0.072143	-0.175170	-0.026655	103.037831	6.096841	-1.879721	11.944711	11.971462	-26.590218	-42.322681	31.627620	7.606645	44.548188	32.274471	26.234108	4.438702	47.620128	32.124365	16.073842	-4.511932	54.954569	38.432648	4.776101	-8.727144	63.378168	44.766475
-0.455000	-160.147433	-5.066637	-73.570646	0.071839	-0.174995	-0.026783	103.128075	6.123243	-1.988131	11.936138	12.090542	-26.571481	-42.344083	31.575293	7.591427	44.555684	32.298829	26.163003	4.430180	47.629452	32.129934	16.013801	-4.513978	54.940233	38.441060	4.733257	-8.689931	63.365906	44.756094
-0.445000	-160.147433	-5.066637	-73.570646	0.071500	-0.174858	-0.026925	103.264569	6.129085	-2.090812	11.941201	12.224999	-26.537673	-42.377094	31.469296	7.569401	44.563277	32.321019	26.040083	4.417965	47.643189	32.136293	15.906769	-4.518357	54.935174	38.450484	4.659889	-8.645196	63.340537	44.724142
-0.435000	-160.147433	-5.066637	-73.570646	0.071110	-0.174758	-0.027085	103.457725	6.117948	-2.175776	11.962890	12.371973	-26.490287	-42.414586	31.327509	7.545815	44.575279	32.337466	25.882306	4.407623	47.666605	32.149082	15.766452	-4.525991	54.964440	38.471808	4.566991	-8.604004	63.318942	44.684962
-0.425000	-160.147433	-5.066637	-73.570646	0.070669	-0.174695	-0.027264	103.698343	6.095277	-2.225881	11.991532	12.519938	-26.439500	-42.449815	31.192795	7.530969	44.598427	32.349206	25.733635	4.406267	47.706723	32.176152	15.629898	-4.537433	55.054385	38.517754	4.479762	-8.582166	63.323435	44.670313
-0.415000	-160.147433	-5.066637	-73.570646	0.070201	-0.174668	-0.027456	103.958095	6.066616	-2.223277	12.008321	12.648826	-26.403343	-42.479267	31.122752	7.537481	44.640622	32.363764	25.656116	4.419382	47.771942	32.225368	15.552173	-4.551835	55.217989	38.594590	4.435154	-8.596118	63.376460	44.720180
-0.405000	-160.147433	-5.066637	-73.570646	0.069741	-0.174664	-0.027657	104.200930	6.036746	-2.156028	11.995004	12.735343	-26.401792	-42.503835	31.168869	7.574756	44.705972	32.394672	25.707971	4.447455	47.868796	32.301517	15.589144	-4.566324	55.439720	38.695470	4.473361	-8.656152	63.492283	44.866494
-0.395000	-160.147433	-5.066637	-73.570646	0.069327	-0.174660	-0.027867	104.400276	6.010649	-2.023439	11.943403	12.762723	-26.446916	-42.527021	31.353890	7.643533	44.788436	32.458692	25.917280	4.484327	47.997930	32.404364	15.774069	-4.576794	55.670752	38.801337	4.625849	-8.759394	63.666209	45.115882
-0.385000	-160.147433	-5.066637	-73.570646	0.068984	-0.174619	-0.028096	104.552069	5.995796	-1.837088	11.858200	12.730972	-26.533784	-42.551313	31.659576	7.734079	44.870018	32.571401	26.265072	4.518834	48.152812	32.529183	16.099438	-4.580279	55.842969	38.890900	4.904305	-8.886662	63.867923	45.440402
-0.375000	-160.147433	-5.066637	-73.570646	0.068714	-0.174503	-0.028359	104.675616	6.003548	-1.617035	11.751629	12.661514	-26.638652	-42.576427	32.032304	7.829531	44.927393	32.741824	26.688406	4.539639	48.321493	32.668477	16.514707	-4.577428	55.898885	38.954219	5.293688	-9.007002	64.048606	45.783700
